<?xml version="1.0" standalone="no"?>
<!DOCTYPE svg PUBLIC "-//W3C//DTD SVG 20010904//EN"
 "http://www.w3.org/TR/2001/REC-SVG-20010904/DTD/svg10.dtd">
<svg version="1.0" xmlns="http://www.w3.org/2000/svg"
 width="376.000000pt" height="376.000000pt" viewBox="0 0 376.000000 376.000000"
 preserveAspectRatio="xMidYMid meet">
<metadata>
Created by potrace 1.11, written by Peter Selinger 2001-2013
</metadata>
<g transform="translate(0.000000,376.000000) scale(0.100000,-0.100000)"
fill="#000000" stroke="none">
<path d="M120 1820 c0 -1611 2 -1820 15 -1820 12 0 15 14 15 65 l0 65 183 -2
182 -3 3 -63 3 -62 49 0 49 0 3 62 3 63 182 3 183 2 0 -65 c0 -51 3 -65 15
-65 12 0 15 14 15 65 l0 65 420 0 420 0 0 -65 0 -65 450 0 450 0 0 65 0 65
425 0 425 0 0 -65 0 -65 75 0 75 0 0 75 0 75 -65 0 -65 0 0 425 0 425 65 0
c51 0 65 3 65 15 0 12 -14 15 -65 15 l-65 0 0 420 0 420 65 0 c51 0 65 3 65
15 0 12 -14 15 -65 15 l-65 0 0 420 0 420 65 0 c51 0 65 3 65 15 0 12 -14 15
-65 15 l-65 0 0 420 0 420 65 0 c51 0 65 3 65 15 0 13 -209 15 -1820 15
l-1820 0 0 -1820z m870 1370 l0 -420 -420 0 -420 0 0 420 0 420 420 0 420 0 0
-420z m870 0 l0 -420 -420 0 -420 0 0 420 0 420 420 0 420 0 0 -420z m880 0
l0 -420 -425 0 -425 0 0 420 0 420 425 0 425 0 0 -420z m870 0 l0 -420 -425 0
-425 0 0 420 0 420 425 0 425 0 0 -420z m-2620 -870 l0 -420 -420 0 -420 0 0
420 0 420 420 0 420 0 0 -420z m2620 0 l0 -420 -425 0 -425 0 0 420 0 420 425
0 425 0 0 -420z m-2620 -870 l0 -420 -420 0 -420 0 0 420 0 420 420 0 420 0 0
-420z m870 0 l0 -420 -420 0 -420 0 0 420 0 420 420 0 420 0 0 -420z m880 0
l0 -420 -425 0 -425 0 0 420 0 420 425 0 425 0 0 -420z m870 0 l0 -420 -425 0
-425 0 0 420 0 420 425 0 425 0 0 -420z m-2620 -875 l0 -425 -182 2 -183 3 -3
68 -3 67 -49 0 -49 0 -3 -67 -3 -68 -182 -3 -183 -2 0 425 0 425 420 0 420 0
0 -425z m1750 0 l0 -425 -425 0 -425 0 0 425 0 425 425 0 425 0 0 -425z"/>
<path d="M242 3550 c-7 -11 -19 -20 -27 -20 -8 0 -15 -4 -15 -10 0 -5 11 -10
25 -10 24 0 25 -2 25 -70 0 -40 4 -70 10 -70 6 0 10 40 10 100 0 55 -3 100 -8
100 -4 0 -13 -9 -20 -20z"/>
<path d="M2840 3563 c-19 -7 -40 -33 -40 -50 0 -21 27 -15 33 8 4 16 12 20 34
17 44 -5 43 -40 -4 -74 -48 -35 -63 -53 -63 -76 0 -15 9 -18 60 -18 33 0 60 4
60 10 0 6 -20 10 -45 10 -25 0 -45 4 -45 10 0 5 18 22 41 37 23 15 45 37 49
49 20 53 -25 97 -80 77z"/>
<path d="M2829 2681 c-21 -17 -24 -28 -24 -86 0 -54 4 -69 19 -81 47 -34 106
-5 106 53 0 42 -31 67 -70 59 -26 -5 -31 -3 -28 11 5 28 34 39 62 23 34 -18
43 -7 17 19 -26 26 -52 27 -82 2z m71 -96 c28 -34 -26 -84 -57 -52 -23 23 -9
67 21 67 13 0 29 -7 36 -15z"/>
<path d="M190 1810 c0 -5 20 -10 44 -10 l45 0 -29 -57 c-37 -75 -46 -113 -25
-113 8 0 15 8 15 19 0 10 16 50 35 87 19 38 35 72 35 77 0 4 -27 7 -60 7 -33
0 -60 -4 -60 -10z"/>
<path d="M1956 1817 c-15 -11 -18 -22 -13 -50 3 -20 1 -39 -4 -42 -15 -10 -10
-62 7 -79 22 -22 77 -20 99 4 13 14 15 27 10 47 -3 15 -6 44 -6 63 0 19 -3 41
-7 47 -13 20 -65 26 -86 10z m67 -29 c7 -22 -4 -38 -28 -38 -27 0 -39 14 -31
35 7 18 53 20 59 3z m5 -94 c4 -27 -21 -47 -48 -39 -20 6 -28 44 -13 59 15 15
58 1 61 -20z"/>
<path d="M2860 1211 c0 -49 3 -96 6 -105 5 -13 24 -16 100 -16 86 0 94 -2 94
-19 0 -19 3 -18 63 6 34 14 64 27 66 29 4 4 -66 35 -106 48 -19 6 -23 4 -23
-13 0 -20 -6 -21 -85 -21 l-85 0 0 90 c0 73 -3 90 -15 90 -12 0 -15 -17 -15
-89z"/>
<path d="M3710 3563 c-19 -8 -30 -23 -30 -45 0 -24 16 -23 23 2 3 14 14 20 32
20 17 0 25 5 23 13 -5 14 -26 18 -48 10z"/>
<path d="M3733 3483 c-20 -8 -15 -23 7 -23 11 0 20 7 20 15 0 15 -6 17 -27 8z"/>
<path d="M3670 3417 c0 -8 8 -21 18 -30 23 -21 72 -23 72 -3 0 9 -7 12 -19 9
-13 -3 -24 2 -33 16 -14 24 -38 28 -38 8z"/>
<path d="M3740 940 c0 -6 -11 -16 -25 -22 -14 -6 -25 -15 -25 -20 0 -4 11 -8
25 -8 24 0 25 -2 25 -70 0 -40 4 -70 10 -70 6 0 10 40 10 100 0 60 -4 100 -10
100 -5 0 -10 -5 -10 -10z"/>
<path d="M242 60 c-7 -11 -19 -20 -27 -20 -8 0 -15 -4 -15 -10 0 -5 11 -10 25
-10 14 0 25 -4 25 -10 0 -5 5 -10 10 -10 6 0 10 18 10 40 0 44 -9 50 -28 20z"/>
<path d="M362 64 c-12 -8 -22 -24 -22 -35 0 -25 17 -24 25 2 10 30 60 23 59
-9 0 -16 4 -22 15 -20 24 5 25 34 2 57 -25 25 -49 27 -79 5z"/>
<path d="M2857 60 c-9 -11 -24 -20 -32 -20 -8 0 -15 -4 -15 -10 0 -5 11 -10
25 -10 14 0 25 -4 25 -10 0 -5 7 -10 15 -10 11 0 15 11 15 40 0 45 -8 49 -33
20z"/>
<path d="M3014 45 c-15 -20 -24 -39 -20 -43 4 -4 14 2 22 12 12 17 14 18 14 3
0 -9 7 -17 15 -17 11 0 15 11 15 40 0 22 -4 40 -9 40 -6 0 -22 -16 -37 -35z"/>
<path d="M1590 45 c0 -12 17 -15 90 -15 73 0 90 -3 90 -15 0 -8 7 -15 15 -15
20 0 20 46 -1 54 -9 3 -56 6 -105 6 -72 0 -89 -3 -89 -15z"/>
</g>
</svg>
