<?xml version="1.0" standalone="no"?>
<!DOCTYPE svg PUBLIC "-//W3C//DTD SVG 20010904//EN"
 "http://www.w3.org/TR/2001/REC-SVG-20010904/DTD/svg10.dtd">
<svg version="1.0" xmlns="http://www.w3.org/2000/svg"
 width="256.000000pt" height="256.000000pt" viewBox="0 0 256.000000 256.000000"
 preserveAspectRatio="xMidYMid meet">

<rect width="100%" height="100%" fill="#fff"/>
<g transform="translate(0.000000,256.000000) scale(0.100000,-0.100000)"
fill="#000000" stroke="none">
<path d="M80 1240 c0 -820 3 -1240 10 -1240 6 0 10 20 10 45 l0 45 125 0 125
0 0 -45 c0 -45 0 -45 34 -45 34 0 35 1 38 43 l3 42 125 0 125 0 6 -45 5 -45 5
45 4 45 288 3 287 2 0 -45 0 -45 305 0 305 0 0 45 0 45 290 0 290 0 0 -45 0
-45 50 0 50 0 0 49 0 50 -42 3 -43 3 -3 288 -2 287 45 0 c25 0 45 5 45 10 0 6
-20 10 -45 10 l-45 0 0 285 0 285 45 0 c57 0 59 18 3 22 l-43 3 0 285 0 285
45 6 45 5 -45 5 -45 4 0 285 0 285 43 3 c23 2 42 7 42 13 0 5 -470 9 -1240 9
l-1240 0 0 -1240z m598 933 l-3 -288 -285 0 -285 0 -3 288 -2 287 290 0 290 0
-2 -287z m590 0 l-3 -288 -285 0 -285 0 -3 288 -2 287 290 0 290 0 -2 -287z
m592 -3 l0 -290 -285 0 -285 0 0 290 0 290 285 0 285 0 0 -290z m598 3 l-3
-288 -285 0 -285 0 -3 288 -2 287 290 0 290 0 -2 -287z m-1783 -593 l0 -285
-287 -3 -288 -2 0 290 0 290 288 -2 287 -3 0 -285z m1783 -2 l2 -288 -290 0
-290 0 0 290 0 290 288 -2 287 -3 3 -287z m-1778 -593 l0 -285 -290 0 -290 0
0 285 0 285 290 0 290 0 0 -285z m590 0 l0 -285 -290 0 -290 0 0 285 0 285
290 0 290 0 0 -285z m590 0 l0 -285 -285 0 -285 0 0 285 0 285 285 0 285 0 0
-285z m600 0 l0 -285 -290 0 -290 0 0 285 0 285 290 0 290 0 0 -285z m-1782
-592 l-3 -288 -119 -3 c-133 -3 -136 -2 -136 61 0 36 -1 37 -34 37 -34 0 -35
-1 -38 -47 l-3 -48 -120 0 -120 0 -3 288 -2 287 290 0 290 0 -2 -287z m1182
-3 l0 -290 -285 0 -285 0 0 290 0 290 285 0 285 0 0 -290z"/>
<path d="M156 2409 c-17 -17 -18 -19 -3 -19 13 0 17 -10 17 -45 0 -25 5 -45
10 -45 6 0 10 28 10 65 0 36 -3 65 -7 64 -5 0 -17 -9 -27 -20z"/>
<path d="M1922 2418 c-7 -7 -12 -19 -12 -27 1 -14 3 -13 14 2 7 9 21 17 30 17
27 0 18 -37 -14 -60 -44 -32 -39 -50 13 -48 36 1 38 2 10 5 -40 5 -42 15 -8
33 14 8 28 24 31 37 11 41 -35 70 -64 41z"/>
<path d="M1926 1824 c-19 -18 -22 -94 -4 -112 25 -25 78 -2 78 33 0 22 -31 47
-51 42 -12 -3 -19 0 -19 9 0 20 27 29 45 14 18 -15 20 1 3 18 -16 16 -33 15
-52 -4z m49 -79 c0 -13 -8 -21 -22 -23 -19 -3 -23 1 -23 23 0 22 4 26 23 23
14 -2 22 -10 22 -23z"/>
<path d="M158 1233 c17 -2 32 -6 32 -8 0 -3 -9 -19 -20 -37 -11 -18 -20 -44
-20 -58 1 -18 9 -8 30 39 17 35 30 65 30 67 0 2 -19 3 -42 2 -37 -1 -39 -2
-10 -5z"/>
<path d="M1324 1226 c-3 -8 -4 -20 -3 -27 2 -8 -1 -24 -5 -37 -10 -28 8 -52
39 -52 39 0 48 29 36 123 -2 13 -62 7 -67 -7z m51 -17 c0 -7 -8 -15 -17 -17
-18 -3 -25 18 -11 32 10 10 28 1 28 -15z m5 -58 c0 -24 -25 -34 -40 -16 -15
18 -5 35 21 35 12 0 19 -7 19 -19z"/>
<path d="M1952 813 l3 -68 65 -3 c35 -2 67 -7 70 -13 4 -6 22 -3 46 7 l39 17
-40 18 c-34 15 -41 16 -48 3 -5 -9 -25 -14 -62 -14 l-55 0 0 60 c0 35 -4 60
-10 60 -7 0 -10 -25 -8 -67z"/>
<path d="M2516 2414 c-9 -8 -13 -20 -10 -26 4 -7 10 -4 16 6 5 9 16 16 23 16
8 0 15 5 15 10 0 15 -27 12 -44 -6z"/>
<path d="M2540 2370 c-13 -8 -12 -10 3 -10 9 0 17 5 17 10 0 12 -1 12 -20 0z"/>
<path d="M2500 2327 c0 -9 9 -21 19 -27 25 -13 41 -13 41 0 0 6 -5 10 -12 10
-6 0 -20 7 -30 17 -16 15 -18 15 -18 0z"/>
<path d="M2531 630 c-18 -15 -19 -20 -7 -20 12 0 16 -10 16 -44 0 -25 5 -48
10 -51 6 -4 10 20 10 64 0 39 -1 71 -2 71 -2 -1 -14 -10 -27 -20z"/>
<path d="M156 35 c-22 -17 -21 -20 12 -29 19 -6 22 -4 22 18 0 29 -7 32 -34
11z"/>
<path d="M240 35 c-7 -8 -10 -18 -6 -22 3 -4 12 2 20 12 14 19 36 13 36 -11 0
-8 5 -14 11 -14 6 0 9 10 7 23 -4 27 -48 36 -68 12z"/>
<path d="M1936 35 c-22 -17 -21 -20 12 -29 19 -6 22 -4 22 18 0 29 -7 32 -34
11z"/>
<path d="M2052 30 c-16 -26 -16 -26 8 -26 14 0 20 7 20 23 0 28 -11 29 -28 3z"/>
<path d="M1080 30 c0 -6 27 -10 60 -10 33 0 60 -4 60 -10 0 -5 5 -10 10 -10 6
0 10 9 10 20 0 18 -7 20 -70 20 -40 0 -70 -4 -70 -10z"/>
</g>
</svg>
